<svg xmlns="http://www.w3.org/2000/svg" xmlns:xlink="http://www.w3.org/1999/xlink" width="792" height="721" viewBox="0 0 792 721">
  <defs>
    <clipPath id="clip-path">
      <path id="Path_33" data-name="Path 33" d="M255.617,5a6.065,6.065,0,0,0-1.437.115V273.66h86.2V105.841C312.826,53.028,286.118,5.848,255.617,5Z" transform="translate(-254.18 -5)" fill="none"/>
    </clipPath>
    <clipPath id="clip-path-2">
      <path id="Path_34" data-name="Path 34" d="M278.945,5a6.065,6.065,0,0,1,1.437.115V273.66h-86.2V105.841C221.721,53.028,248.516,5.848,278.945,5Z" transform="translate(-194.18 -5)" fill="none"/>
    </clipPath>
  </defs>
  <g id="Group_23" data-name="Group 23" transform="translate(-4848 -1982)">
    <ellipse id="Ellipse_35" data-name="Ellipse 35" cx="213" cy="214" rx="213" ry="214" transform="translate(5008 2127)" fill="rgba(43,160,255,0.17)"/>
    <ellipse id="Ellipse_37" data-name="Ellipse 37" cx="358" cy="360.5" rx="358" ry="360.5" transform="translate(4848 1982)" fill="rgba(43,160,255,0.17)"/>
    <g id="Ellipse_33" data-name="Ellipse 33" transform="translate(4925 1982)" fill="none" stroke="#8ccaf8" stroke-width="1">
      <ellipse cx="357.5" cy="360" rx="357.5" ry="360" stroke="none"/>
      <ellipse cx="357.5" cy="360" rx="357" ry="359.5" fill="none"/>
    </g>
    <g id="stats_1" transform="translate(4918.37 2138.326)">
      <g id="Group_20" data-name="Group 20" transform="translate(362.282 5.873)" opacity="0.99">
        <g id="Group_19" data-name="Group 19" clip-path="url(#clip-path)">
          <rect id="Rectangle_42" data-name="Rectangle 42" width="1.437" height="449.137" transform="translate(-37.406 -152.534) rotate(-31.04)" fill="#828282"/>
          <rect id="Rectangle_43" data-name="Rectangle 43" width="1.437" height="449.137" transform="translate(-49.413 -136.862) rotate(-31.04)" fill="#828282"/>
          <rect id="Rectangle_44" data-name="Rectangle 44" width="1.437" height="449.137" transform="translate(-61.432 -121.183) rotate(-31.04)" fill="#828282"/>
          <rect id="Rectangle_45" data-name="Rectangle 45" width="1.437" height="449.137" transform="translate(-73.439 -105.51) rotate(-31.04)" fill="#828282"/>
          <rect id="Rectangle_46" data-name="Rectangle 46" width="1.437" height="449.137" transform="translate(-85.46 -89.838) rotate(-31.04)" fill="#828282"/>
          <rect id="Rectangle_47" data-name="Rectangle 47" width="1.437" height="449.137" transform="translate(-97.479 -74.159) rotate(-31.04)" fill="#828282"/>
          <rect id="Rectangle_48" data-name="Rectangle 48" width="1.437" height="449.137" transform="translate(-109.486 -58.486) rotate(-31.04)" fill="#828282"/>
          <rect id="Rectangle_49" data-name="Rectangle 49" width="1.437" height="449.137" transform="translate(-121.512 -42.819) rotate(-31.04)" fill="#828282"/>
          <rect id="Rectangle_50" data-name="Rectangle 50" width="1.437" height="449.137" transform="translate(-133.519 -27.147) rotate(-31.04)" fill="#828282"/>
          <rect id="Rectangle_51" data-name="Rectangle 51" width="1.437" height="449.137" transform="translate(-145.54 -11.475) rotate(-31.04)" fill="#828282"/>
          <rect id="Rectangle_52" data-name="Rectangle 52" width="1.437" height="449.137" transform="translate(-157.559 4.205) rotate(-31.04)" fill="#828282"/>
          <rect id="Rectangle_53" data-name="Rectangle 53" width="1.437" height="449.137" transform="translate(-169.566 19.863) rotate(-31.04)" fill="#828282"/>
        </g>
      </g>
      <g id="Group_22" data-name="Group 22" transform="translate(276.081 5.873)" opacity="0.99">
        <g id="Group_21" data-name="Group 21" clip-path="url(#clip-path-2)">
          <rect id="Rectangle_54" data-name="Rectangle 54" width="449.137" height="1.437" transform="translate(-109.228 231.571) rotate(-58.96)" fill="#828282"/>
          <rect id="Rectangle_55" data-name="Rectangle 55" width="449.137" height="1.437" transform="translate(-97.205 247.249) rotate(-58.96)" fill="#828282"/>
          <rect id="Rectangle_56" data-name="Rectangle 56" width="449.137" height="1.437" transform="translate(-85.189 262.915) rotate(-58.96)" fill="#828282"/>
          <rect id="Rectangle_57" data-name="Rectangle 57" width="449.137" height="1.437" transform="translate(-73.166 278.593) rotate(-58.96)" fill="#828282"/>
          <rect id="Rectangle_58" data-name="Rectangle 58" width="449.137" height="1.437" transform="translate(-61.158 294.271) rotate(-58.96)" fill="#828282"/>
          <rect id="Rectangle_59" data-name="Rectangle 59" width="449.137" height="1.437" transform="translate(-49.127 309.937) rotate(-58.96)" fill="#828282"/>
          <rect id="Rectangle_60" data-name="Rectangle 60" width="449.137" height="1.437" transform="translate(-37.119 325.615) rotate(-58.96)" fill="#828282"/>
          <rect id="Rectangle_61" data-name="Rectangle 61" width="449.137" height="1.437" transform="translate(-25.11 341.294) rotate(-58.96)" fill="#828282"/>
          <rect id="Rectangle_62" data-name="Rectangle 62" width="449.137" height="1.437" transform="translate(-13.092 356.966) rotate(-58.96)" fill="#828282"/>
          <rect id="Rectangle_63" data-name="Rectangle 63" width="449.137" height="1.437" transform="translate(-1.084 372.645) rotate(-58.96)" fill="#828282"/>
          <rect id="Rectangle_64" data-name="Rectangle 64" width="449.137" height="1.437" transform="translate(10.947 388.31) rotate(-58.96)" fill="#828282"/>
          <rect id="Rectangle_65" data-name="Rectangle 65" width="449.137" height="1.437" transform="translate(22.955 403.988) rotate(-58.96)" fill="#828282"/>
        </g>
      </g>
      <path id="Path_35" data-name="Path 35" d="M641.535,277.968A251.712,251.712,0,0,1,597,273.959c-30.17-5.488-72.352-19.539-101.1-55.068-20.9-25.86-39.882-62.453-58.229-97.853C408,63.786,379.972,9.695,348.71,8.747c-31.262.934-59.292,55.025-88.96,112.277-18.346,35.4-37.354,72.007-58.215,97.853-28.734,35.572-70.915,49.58-101.215,55.068A235.761,235.761,0,0,1,41,277.407l.546-5.747c1.02.1,102.565,9.094,155.536-56.419,20.53-25.386,39.365-61.778,57.568-96.876C285.136,59.548,313.971,3.963,348.638,3h.144c34.682.948,63.5,56.534,94,115.38,18.2,35.141,37.038,71.49,57.582,96.876,53,65.585,154.5,56.534,155.536,56.4l.546,5.747C655.9,277.407,650.471,277.968,641.535,277.968Z" transform="translate(15.009)" fill="#191919"/>
      <rect id="Rectangle_66" data-name="Rectangle 66" width="2.873" height="38.072" transform="translate(191.79 237.194)" fill="#191919"/>
      <rect id="Rectangle_67" data-name="Rectangle 67" width="2.873" height="38.072" transform="translate(532.285 237.194)" fill="#191919"/>
      <rect id="Rectangle_68" data-name="Rectangle 68" width="2.873" height="167.374" transform="translate(276.555 107.893)" fill="#191919"/>
      <rect id="Rectangle_69" data-name="Rectangle 69" width="2.873" height="167.374" transform="translate(447.521 107.893)" fill="#191919"/>
      <line id="Line_4" data-name="Line 4" y2="269.379" transform="translate(362.756 5.888)" fill="none" stroke="#191919" stroke-miterlimit="10" stroke-width="2"/>
      <rect id="Rectangle_70" data-name="Rectangle 70" width="1.638" height="12.341" transform="translate(6.63 291.702)"/>
      <path id="Path_36" data-name="Path 36" d="M22.387,210.169a7.341,7.341,0,0,0-.733-3.3,5.244,5.244,0,0,0-2.112-2.284,6.293,6.293,0,0,0-6.106,0,5.345,5.345,0,0,0-2.227,2.385,7.327,7.327,0,0,0-.69,3.2,7.183,7.183,0,0,0,.747,3.3,5.416,5.416,0,0,0,2.112,2.284,5.747,5.747,0,0,0,3.017.79,6.164,6.164,0,0,0,3.031-.761,9.626,9.626,0,0,0,2.658,1.437l.474-1.135a10.589,10.589,0,0,1-2.1-1.135,6.436,6.436,0,0,0,1.925-4.784Zm-3.118,3.98a6.293,6.293,0,0,0-2.342-1.178l-.388,1.192a5.33,5.33,0,0,1,1.609.7,4.309,4.309,0,0,1-1.652.33,3.821,3.821,0,0,1-3.218-1.437,6.551,6.551,0,0,1,0-7,3.836,3.836,0,0,1,3.233-1.437,4.052,4.052,0,0,1,2.213.618,4.741,4.741,0,0,1,2,4.31,5.057,5.057,0,0,1-1.451,3.893Z" transform="translate(1.698 87.682)"/>
      <path id="Path_37" data-name="Path 37" d="M31.087,210.433c-.187-.072-.776-.244-1.767-.5q-1.121-.3-1.336-.388a.991.991,0,0,1-.761-.934c0-.776.647-1.149,1.925-1.149s1.825.474,1.954,1.437l1.437-.2a3.074,3.074,0,0,0-.517-1.437A3.52,3.52,0,0,0,29,206.138a3.735,3.735,0,0,0-2.27.632,2.255,2.255,0,0,0-1.02,1.94,2.126,2.126,0,0,0,.33,1.193,2.773,2.773,0,0,0,1.437,1.077q.417.158,1.81.517a6.51,6.51,0,0,1,1.537.5.919.919,0,0,1,.445.8,1.192,1.192,0,0,1-.69,1.121,2.758,2.758,0,0,1-1.35.3,2.04,2.04,0,0,1-2.327-1.853l-1.437.244a3.376,3.376,0,0,0,3.822,2.873,4.582,4.582,0,0,0,1.882-.374A2.543,2.543,0,0,0,32.9,212.66a2.284,2.284,0,0,0-.359-1.293,3.046,3.046,0,0,0-1.451-.934Z" transform="translate(8.227 88.697)"/>
      <path id="Path_38" data-name="Path 38" d="M36.858,214.259c-1.652,0-2.485-1.135-2.485-3.419s.862-3.4,2.572-3.4a1.983,1.983,0,0,1,2.04,1.8l1.437-.23a3.348,3.348,0,0,0-1.221-2.126,3.779,3.779,0,0,0-2.342-.7,4.037,4.037,0,0,0-4.08,4.712,5.129,5.129,0,0,0,.991,3.29,3.721,3.721,0,0,0,3.075,1.35,3.606,3.606,0,0,0,2.514-.905,3.922,3.922,0,0,0,1.207-2.385l-1.437-.187C38.869,213.527,38.151,214.259,36.858,214.259Z" transform="translate(11.393 88.721)"/>
      <path id="Path_39" data-name="Path 39" d="M44.153,206.171a4.181,4.181,0,0,0-2.873.991,4.626,4.626,0,0,0-1.437,3.678,5.028,5.028,0,0,0,1.034,3.333,3.865,3.865,0,0,0,3.161,1.35,4.138,4.138,0,0,0,4.181-4.8,4.755,4.755,0,0,0-1.077-3.247A3.937,3.937,0,0,0,44.153,206.171Zm2.054,6.939a2.485,2.485,0,0,1-4.109,0,4.957,4.957,0,0,1,0-4.684,2.3,2.3,0,0,1,2.054-1.063,2.256,2.256,0,0,1,2.026,1.049,4.094,4.094,0,0,1,.6,2.313,4.526,4.526,0,0,1-.575,2.385Z" transform="translate(14.499 88.721)"/>
      <path id="Path_40" data-name="Path 40" d="M49.535,207.745V206.38H48.17v8.951h1.437v-4.684a5.747,5.747,0,0,1,.259-1.767,1.437,1.437,0,0,1,1.437-1.135,2.242,2.242,0,0,1,1.121.33l.517-1.437a3.06,3.06,0,0,0-1.552-.488C50.8,206.179,50.11,206.7,49.535,207.745Z" transform="translate(18.14 88.713)"/>
      <path id="Path_41" data-name="Path 41" d="M57.213,206.171a3.793,3.793,0,0,0-3.146,1.437,5.215,5.215,0,0,0-1.034,3.362,4.813,4.813,0,0,0,1.078,3.3,3.994,3.994,0,0,0,3.189,1.293,3.649,3.649,0,0,0,3.922-2.873l-1.566-.2a2.5,2.5,0,0,1-4.31.919,3.635,3.635,0,0,1-.718-2.112h6.666v-.4a5.186,5.186,0,0,0-1.006-3.29,3.692,3.692,0,0,0-3.075-1.437Zm-2.529,3.822a2.873,2.873,0,0,1,.733-1.825,2.414,2.414,0,0,1,1.81-.733,2.371,2.371,0,0,1,1.882.862,3.074,3.074,0,0,1,.56,1.7Z" transform="translate(20.26 88.721)"/>
      <path id="Path_42" data-name="Path 42" d="M83.287,208.191a6.508,6.508,0,0,0-3.175.833l.833-4.152H88.8v-3H78.431l-2.026,10.7,2.873.374.129-.2a3.98,3.98,0,0,1,6.048-.632,4.224,4.224,0,0,1,1.006,2.873,4.784,4.784,0,0,1-.991,3.075,3.347,3.347,0,0,1-2.787,1.336,3.031,3.031,0,0,1-2.327-.948,4.468,4.468,0,0,1-1.077-2.428v-.33l-3.218.273v.359a6.264,6.264,0,0,0,2.112,4.31,6.882,6.882,0,0,0,4.511,1.537,6.58,6.58,0,0,0,5.416-2.514,7.528,7.528,0,0,0,1.623-4.813,6.71,6.71,0,0,0-1.781-4.727A6.12,6.12,0,0,0,83.287,208.191Z" transform="translate(30.319 86.844)"/>
      <path id="Path_43" data-name="Path 43" d="M95.748,208.191a6.508,6.508,0,0,0-3.175.833l.833-4.152h7.859v-3H90.892l-2.026,10.7,2.873.374.129-.2a3.98,3.98,0,0,1,6.063-.589,4.209,4.209,0,0,1,.991,2.873,4.856,4.856,0,0,1-.977,3.075,3.347,3.347,0,0,1-2.787,1.336,3.06,3.06,0,0,1-2.342-.948,4.568,4.568,0,0,1-1.063-2.428v-.33l-3.2.273v.359a6.206,6.206,0,0,0,2.083,4.368,6.882,6.882,0,0,0,4.511,1.437,6.609,6.609,0,0,0,5.416-2.514,7.528,7.528,0,0,0,1.566-4.784,6.709,6.709,0,0,0-1.781-4.727A6.12,6.12,0,0,0,95.748,208.191Z" transform="translate(35.773 86.844)"/>
      <path id="Path_44" data-name="Path 44" d="M125.16,204.921h9.166a27.932,27.932,0,0,0-2.988,4.569,30.976,30.976,0,0,0-2.371,5.833,23.333,23.333,0,0,0-1.063,6.207v.374h3.175v-.345a25.055,25.055,0,0,1,.905-5.287,34.48,34.48,0,0,1,2.586-6.321,25.859,25.859,0,0,1,3.865-5.589l.1-.1V201.89H125.16Z" transform="translate(51.761 86.853)"/>
      <path id="Path_45" data-name="Path 45" d="M144.254,201.632a5.747,5.747,0,0,0-3.75,1.221c-1.983,1.609-2.974,4.669-2.974,9.123,0,6.853,2.256,10.33,6.724,10.33a5.747,5.747,0,0,0,3.793-1.25c1.954-1.595,2.945-4.655,2.945-9.08a14.367,14.367,0,0,0-1.71-7.729,5.646,5.646,0,0,0-5.028-2.615Zm0,17.973c-1.437,0-2.485-.905-3.031-2.773a17.571,17.571,0,0,1-.517-4.87c0-3.118.4-5.273,1.178-6.379a2.715,2.715,0,0,1,2.342-1.25c1.509,0,2.514.905,3.074,2.758a18.173,18.173,0,0,1,.5,4.87C147.8,217.033,146.61,219.6,144.254,219.6Z" transform="translate(57.162 86.737)"/>
      <path id="Path_46" data-name="Path 46" d="M194.549,210.984a4.123,4.123,0,0,0,2.313-3.893,5,5,0,0,0-1.839-4.023,6.25,6.25,0,0,0-4.2-1.437,6.336,6.336,0,0,0-4.166,1.437,4.971,4.971,0,0,0-1.81,4.008,4.2,4.2,0,0,0,2.3,3.936A4.9,4.9,0,0,0,184,215.955a5.933,5.933,0,0,0,2.011,4.655,7.629,7.629,0,0,0,9.554,0A5.847,5.847,0,0,0,197.6,216a5.1,5.1,0,0,0-3.046-5.014Zm-1.667-2a3.132,3.132,0,0,1-4.08,0,2.658,2.658,0,0,1-.79-2.011,2.485,2.485,0,0,1,.819-1.9,3.057,3.057,0,0,1,4.037.057,2.572,2.572,0,0,1,.8,1.968,2.428,2.428,0,0,1-.79,1.882ZM190.9,219.6a3.923,3.923,0,0,1-1.9-.489,3.29,3.29,0,0,1-1.752-3.146,3.448,3.448,0,0,1,3.563-3.563,3.592,3.592,0,0,1,2.643,1.034,3.434,3.434,0,0,1,1.049,2.6,3.347,3.347,0,0,1-1.02,2.557A3.477,3.477,0,0,1,190.9,219.6Z" transform="translate(77.451 86.738)"/>
      <path id="Path_47" data-name="Path 47" d="M203.748,208.191a6.508,6.508,0,0,0-3.175.833l.833-4.152h7.859v-3H198.892l-2.026,10.7,2.873.374.129-.2a3.98,3.98,0,0,1,6.063-.589,4.209,4.209,0,0,1,.991,2.873,4.856,4.856,0,0,1-.977,3.074,3.347,3.347,0,0,1-2.787,1.336,3.06,3.06,0,0,1-2.342-.948,4.569,4.569,0,0,1-1.063-2.428v-.33l-3.2.273v.359a6.206,6.206,0,0,0,2.112,4.31,6.882,6.882,0,0,0,4.526,1.509,6.609,6.609,0,0,0,5.416-2.514,7.528,7.528,0,0,0,1.623-4.813,6.709,6.709,0,0,0-1.782-4.727,6.121,6.121,0,0,0-4.7-1.939Z" transform="translate(82.936 86.844)"/>
      <path id="Path_48" data-name="Path 48" d="M305.029,201.831a11.047,11.047,0,0,1-5.474,4.741l-.215.086v3.074l.488-.187a14.368,14.368,0,0,0,4.31-2.428v14.855h3.118V201.63H305.13Z" transform="translate(127.823 86.739)"/>
      <path id="Path_49" data-name="Path 49" d="M316.089,201.831a11.092,11.092,0,0,1-5.488,4.741l-.2.086v3.074l.488-.187a14.754,14.754,0,0,0,4.31-2.428v14.855h3.118V201.63H316.19Z" transform="translate(132.652 86.739)"/>
      <path id="Path_50" data-name="Path 50" d="M328.793,208.174a6.508,6.508,0,0,0-3.175.833l.862-4.095h7.844v-3H323.952l-2.011,10.7,2.873.374.115-.2a3.994,3.994,0,0,1,6.077-.589A4.21,4.21,0,0,1,332,215.07a4.784,4.784,0,0,1-.991,3.075,3.319,3.319,0,0,1-2.773,1.336,3.06,3.06,0,0,1-2.342-.948,4.569,4.569,0,0,1-1.063-2.428v-.33l-3.218.273v.359a6.149,6.149,0,0,0,2.112,4.31,6.824,6.824,0,0,0,4.482,1.437,6.566,6.566,0,0,0,5.4-2.514,7.527,7.527,0,0,0,1.623-4.813,6.7,6.7,0,0,0-1.767-4.727,6.163,6.163,0,0,0-4.669-1.925Z" transform="translate(137.548 86.861)"/>
      <path id="Path_51" data-name="Path 51" d="M363.029,201.831a11.048,11.048,0,0,1-5.474,4.741l-.216.086v3.074l.488-.187a14.367,14.367,0,0,0,4.31-2.428v14.855h3.118V201.63H363.13Z" transform="translate(153.151 86.739)"/>
      <path id="Path_52" data-name="Path 52" d="M378.943,210.941a4.31,4.31,0,0,0,2.141-3.879,5.23,5.23,0,0,0-.761-2.7,5.33,5.33,0,0,0-2.327-2.054,6.8,6.8,0,0,0-2.988-.675,6.135,6.135,0,0,0-4.152,1.437,6.623,6.623,0,0,0-2.083,3.922v.359l3.118.546v-.359c.33-2.155,1.365-3.2,3.175-3.2a2.874,2.874,0,0,1,2.04.733,2.758,2.758,0,0,1-.273,4.138,4.31,4.31,0,0,1-2.543.718h-.7l-.374,2.873.517-.129a6.364,6.364,0,0,1,1.595-.259,3.348,3.348,0,0,1,2.486.963,3.3,3.3,0,0,1,.977,2.485,3.621,3.621,0,0,1-1.049,2.643,3.505,3.505,0,0,1-2.615,1.078c-1.853,0-2.988-1.164-3.477-3.563v-.33l-3.075.417v.345a6.163,6.163,0,0,0,2.083,4.238,6.638,6.638,0,0,0,4.482,1.595,7.183,7.183,0,0,0,4.87-1.781,6.005,6.005,0,0,0,2.069-4.7,5.445,5.445,0,0,0-.991-3.319,4.468,4.468,0,0,0-2.141-1.537Z" transform="translate(158.054 86.738)"/>
      <path id="Path_53" data-name="Path 53" d="M387.724,201.631a5.833,5.833,0,0,0-3.764,1.221c-1.968,1.609-2.96,4.669-2.96,9.123,0,6.853,2.256,10.33,6.724,10.33a5.747,5.747,0,0,0,3.793-1.25c1.94-1.595,2.873-4.655,2.873-9.08a14.366,14.366,0,0,0-1.71-7.729A5.6,5.6,0,0,0,387.724,201.631Zm0,17.973c-1.437,0-2.485-.905-3.046-2.773a18.243,18.243,0,0,1-.5-4.87c0-3.118.4-5.273,1.178-6.379a2.7,2.7,0,0,1,2.342-1.25c1.437,0,2.514.905,3.075,2.758a18.177,18.177,0,0,1,.5,4.87C391.272,217.033,390.08,219.6,387.724,219.6Z" transform="translate(163.482 86.738)"/>
      <path id="Path_54" data-name="Path 54" d="M418.029,201.831a11.048,11.048,0,0,1-5.474,4.741l-.216.086v3.074l.488-.187a14.366,14.366,0,0,0,4.31-2.428v14.855h3.118V201.63H418.13Z" transform="translate(177.168 86.739)"/>
      <path id="Path_55" data-name="Path 55" d="M434.574,201.69h-2.5l-9.094,12.93v2.672h8.476v4.684h3.118v-4.684h2.643v-2.873h-2.643Zm-8.189,12.657,5.072-7.313v7.313Z" transform="translate(181.815 86.765)"/>
      <path id="Path_56" data-name="Path 56" d="M447.877,210.145a6.164,6.164,0,0,0-4.669-1.954,6.508,6.508,0,0,0-3.175.833l.848-4.152h7.844v-3H438.352l-2.011,10.7,2.873.374.115-.2a3.994,3.994,0,0,1,6.077-.589,4.209,4.209,0,0,1,.991,2.873,4.784,4.784,0,0,1-.991,3.075,3.319,3.319,0,0,1-2.773,1.336,3.06,3.06,0,0,1-2.342-.948,4.568,4.568,0,0,1-1.063-2.428v-.33l-3.218.273v.359a6.149,6.149,0,0,0,2.112,4.31,6.824,6.824,0,0,0,4.526,1.509,6.566,6.566,0,0,0,5.4-2.514,7.528,7.528,0,0,0,1.623-4.813,6.7,6.7,0,0,0-1.8-4.712Z" transform="translate(187.505 86.844)"/>
      <path id="Path_57" data-name="Path 57" d="M238.284,202.5a14.367,14.367,0,0,1-7.1,6.12l-.417.187v4.54l.963-.359a19.238,19.238,0,0,0,5.344-2.873V229.3h4.6V202h-3.2Z" transform="translate(97.879 86.901)"/>
      <path id="Path_58" data-name="Path 58" d="M254.564,202.072a7.83,7.83,0,0,0-5.1,1.667c-2.658,2.155-3.994,6.25-3.994,12.183,0,9.18,3.06,13.835,9.094,13.835a7.93,7.93,0,0,0,5.143-1.681c2.629-2.169,3.965-6.25,3.965-12.154,0-4.482-.776-7.945-2.3-10.3a7.643,7.643,0,0,0-6.81-3.549Zm0,23.634c-1.839,0-3.06-1.135-3.764-3.462a23.736,23.736,0,0,1-.647-6.336c0-4.052.5-6.839,1.437-8.261a3.3,3.3,0,0,1,2.873-1.523c1.853,0,3.1,1.121,3.793,3.448a22.988,22.988,0,0,1,.661,6.336C258.989,222.416,257.5,225.706,254.564,225.706Z" transform="translate(104.298 86.929)"/>
      <path id="Path_59" data-name="Path 59" d="M270.979,202.072a7.8,7.8,0,0,0-5.1,1.667c-2.658,2.155-4.008,6.25-4.008,12.183,0,9.18,3.06,13.835,9.109,13.835a7.916,7.916,0,0,0,5.129-1.681c2.629-2.169,3.965-6.25,3.965-12.154,0-4.482-.776-7.945-2.284-10.3A7.658,7.658,0,0,0,270.979,202.072Zm0,23.633c-1.839,0-3.075-1.135-3.778-3.462a23.731,23.731,0,0,1-.647-6.336c0-4.052.5-6.839,1.508-8.261a3.261,3.261,0,0,1,2.873-1.523c1.868,0,3.1,1.121,3.807,3.448a23.59,23.59,0,0,1,.646,6.336C275.389,222.416,273.909,225.706,270.979,225.706Z" transform="translate(111.46 86.929)"/>
      <path id="Path_60" data-name="Path 60" d="M198.251,17.128a3.046,3.046,0,0,0,1.983-2.873,3.535,3.535,0,0,0-.517-1.853,3.664,3.664,0,0,0-1.595-1.437,4.727,4.727,0,0,0-2.1-.474A4.181,4.181,0,0,0,193.15,11.5a4.64,4.64,0,0,0-1.437,2.73l1.767.316c.273-1.724,1.135-2.586,2.615-2.586a2.414,2.414,0,0,1,1.681.6,2.184,2.184,0,0,1,.675,1.638,2.112,2.112,0,0,1-.905,1.825,3.419,3.419,0,0,1-2.04.589h-.287l-.158,1.494a5.071,5.071,0,0,1,1.25-.2,2.73,2.73,0,0,1,2.873,2.873,2.96,2.96,0,0,1-.848,2.141,2.873,2.873,0,0,1-2.126.862c-1.437,0-2.428-.934-2.873-2.873l-1.767.23a4.31,4.31,0,0,0,1.437,2.945,4.511,4.511,0,0,0,3.132,1.106,4.928,4.928,0,0,0,3.4-1.236,4.152,4.152,0,0,0,1.437-3.261,3.721,3.721,0,0,0-.675-2.3,3.333,3.333,0,0,0-2.054-1.264Z" transform="translate(80.761 3.27)" fill="#6b6b6b"/>
      <path id="Path_61" data-name="Path 61" d="M208.327,10.51H206.89l-6.58,9.324v1.623h6.235v3.448h1.781V21.458h1.94V19.834h-1.94Zm-1.781,9.324h-4.5l4.5-6.508Z" transform="translate(84.578 3.28)" fill="#6b6b6b"/>
      <path id="Path_62" data-name="Path 62" d="M219.643,15.611a2.643,2.643,0,0,0-2.3,1.135,4.31,4.31,0,0,0-.733,2.557,4.783,4.783,0,0,0,.69,2.687,2.615,2.615,0,0,0,2.356,1.221,2.758,2.758,0,0,0,2.371-1.164,4.31,4.31,0,0,0,.747-2.629,4.468,4.468,0,0,0-.733-2.658,2.787,2.787,0,0,0-2.4-1.149Zm0,6.393c-1.02,0-1.537-.848-1.537-2.514s.517-2.672,1.552-2.672,1.537.848,1.537,2.529S220.72,22,219.686,22Z" transform="translate(91.694 5.506)" fill="#6b6b6b"/>
      <path id="Path_63" data-name="Path 63" d="M220.139,10.34,212.28,25.526h1.451L221.59,10.34Z" transform="translate(89.805 3.205)" fill="#6b6b6b"/>
      <path id="Path_64" data-name="Path 64" d="M215.548,16.778a4.425,4.425,0,0,0,.747-2.615,4.439,4.439,0,0,0-.747-2.658,2.758,2.758,0,0,0-2.4-1.164,2.687,2.687,0,0,0-2.3,1.149,4.31,4.31,0,0,0-.718,2.557,4.87,4.87,0,0,0,.675,2.687,2.629,2.629,0,0,0,2.371,1.221,2.758,2.758,0,0,0,2.371-1.178Zm-2.342,0c-1.02,0-1.537-.833-1.537-2.514s.517-2.658,1.537-2.658,1.537.848,1.537,2.529-.488,2.6-1.537,2.6Z" transform="translate(88.865 3.204)" fill="#6b6b6b"/>
      <path id="Path_65" data-name="Path 65" d="M295.251,17.128a3.046,3.046,0,0,0,1.983-2.873,3.534,3.534,0,0,0-.517-1.853,3.663,3.663,0,0,0-1.595-1.437,4.726,4.726,0,0,0-2.1-.474A4.181,4.181,0,0,0,290.15,11.5a4.64,4.64,0,0,0-1.437,2.73l1.767.316c.273-1.724,1.135-2.586,2.615-2.586a2.414,2.414,0,0,1,1.681.6,2.184,2.184,0,0,1,.675,1.638,2.112,2.112,0,0,1-.905,1.825,3.419,3.419,0,0,1-2.04.589h-.287l-.158,1.494a5.072,5.072,0,0,1,1.25-.2,2.73,2.73,0,0,1,2.873,2.873,2.959,2.959,0,0,1-.848,2.141,2.873,2.873,0,0,1-2.126.862c-1.437,0-2.428-.934-2.873-2.873l-1.767.23a4.31,4.31,0,0,0,1.437,2.945,4.511,4.511,0,0,0,3.132,1.106,4.928,4.928,0,0,0,3.4-1.236,4.152,4.152,0,0,0,1.437-3.261,3.721,3.721,0,0,0-.675-2.3,3.333,3.333,0,0,0-2.054-1.264Z" transform="translate(123.12 3.27)" fill="#6b6b6b"/>
      <path id="Path_66" data-name="Path 66" d="M305.327,10.51H303.89l-6.58,9.324v1.623h6.235v3.448h1.782V21.458h1.94V19.834h-1.94Zm-1.782,9.324h-4.5l4.5-6.508Z" transform="translate(126.936 3.28)" fill="#6b6b6b"/>
      <path id="Path_67" data-name="Path 67" d="M316.643,15.611a2.644,2.644,0,0,0-2.3,1.135,4.31,4.31,0,0,0-.733,2.557,4.784,4.784,0,0,0,.69,2.687,2.615,2.615,0,0,0,2.356,1.221,2.759,2.759,0,0,0,2.371-1.164,4.31,4.31,0,0,0,.747-2.629,4.468,4.468,0,0,0-.733-2.658A2.787,2.787,0,0,0,316.643,15.611Zm0,6.393c-1.02,0-1.537-.848-1.537-2.514s.517-2.672,1.552-2.672,1.537.848,1.537,2.529S317.72,22,316.686,22Z" transform="translate(134.053 5.506)" fill="#6b6b6b"/>
      <path id="Path_68" data-name="Path 68" d="M317.139,10.34,309.28,25.526h1.451L318.59,10.34Z" transform="translate(132.163 3.205)" fill="#6b6b6b"/>
      <path id="Path_69" data-name="Path 69" d="M312.548,16.778a4.425,4.425,0,0,0,.747-2.615,4.439,4.439,0,0,0-.747-2.658,2.758,2.758,0,0,0-2.4-1.164,2.686,2.686,0,0,0-2.3,1.149,4.311,4.311,0,0,0-.718,2.557,4.87,4.87,0,0,0,.675,2.687,2.629,2.629,0,0,0,2.37,1.221,2.758,2.758,0,0,0,2.371-1.178Zm-2.342,0c-1.02,0-1.537-.833-1.537-2.514s.517-2.658,1.537-2.658,1.537.848,1.537,2.529-.488,2.6-1.537,2.6Z" transform="translate(131.223 3.204)" fill="#6b6b6b"/>
      <path id="Path_70" data-name="Path 70" d="M354.47,130.1v1.71A10.3,10.3,0,0,0,358,129.674v11.278h1.767V126.47h-1.135a8.39,8.39,0,0,1-4.166,3.635Z" transform="translate(151.897 53.918)" fill="#6b6b6b"/>
      <path id="Path_71" data-name="Path 71" d="M370.322,126.51h-1.437l-6.566,9.338v1.623h6.235v3.448h1.781v-3.448h1.94v-1.638h-1.94Zm-1.782,9.338h-4.5l4.5-6.508Z" transform="translate(155.325 53.935)" fill="#6b6b6b"/>
      <path id="Path_72" data-name="Path 72" d="M377.548,132.778a5.028,5.028,0,0,0,0-5.273,2.758,2.758,0,0,0-2.4-1.164,2.686,2.686,0,0,0-2.3,1.149,4.31,4.31,0,0,0-.718,2.557,4.87,4.87,0,0,0,.675,2.687,2.629,2.629,0,0,0,2.37,1.221,2.758,2.758,0,0,0,2.371-1.178Zm-2.342,0c-1.02,0-1.537-.833-1.537-2.514s.517-2.658,1.537-2.658,1.537.848,1.537,2.529-.488,2.6-1.537,2.6Z" transform="translate(159.608 53.86)" fill="#6b6b6b"/>
      <path id="Path_73" data-name="Path 73" d="M381.643,131.611a2.643,2.643,0,0,0-2.3,1.135,4.31,4.31,0,0,0-.733,2.557,4.784,4.784,0,0,0,.69,2.687,2.615,2.615,0,0,0,2.356,1.221,2.758,2.758,0,0,0,2.371-1.164,4.31,4.31,0,0,0,.747-2.629,4.468,4.468,0,0,0-.733-2.658,2.787,2.787,0,0,0-2.4-1.149Zm0,6.393c-1.02,0-1.537-.848-1.537-2.514s.517-2.672,1.552-2.672,1.537.848,1.537,2.529S382.72,138,381.686,138Z" transform="translate(162.438 56.161)" fill="#6b6b6b"/>
      <path id="Path_74" data-name="Path 74" d="M382.139,126.34l-7.859,15.186h1.451l7.859-15.186Z" transform="translate(160.548 53.861)" fill="#6b6b6b"/>
      <path id="Path_75" data-name="Path 75" d="M127.47,130.1v1.71A10.3,10.3,0,0,0,131,129.674v11.278h1.767V126.47h-1.135A8.39,8.39,0,0,1,127.47,130.1Z" transform="translate(52.769 53.918)" fill="#6b6b6b"/>
      <path id="Path_76" data-name="Path 76" d="M143.322,126.51h-1.437l-6.566,9.338v1.623h6.235v3.448h1.782v-3.448h1.94v-1.638h-1.94Zm-1.782,9.338h-4.5l4.5-6.508Z" transform="translate(56.197 53.935)" fill="#6b6b6b"/>
      <path id="Path_77" data-name="Path 77" d="M155.139,126.34l-7.859,15.186h1.451l7.859-15.186Z" transform="translate(61.42 53.861)" fill="#6b6b6b"/>
      <path id="Path_78" data-name="Path 78" d="M150.548,132.778a5.028,5.028,0,0,0,0-5.273,2.758,2.758,0,0,0-2.4-1.164,2.686,2.686,0,0,0-2.3,1.149,4.31,4.31,0,0,0-.718,2.557,4.87,4.87,0,0,0,.675,2.687,2.629,2.629,0,0,0,2.371,1.221,2.758,2.758,0,0,0,2.371-1.178Zm-2.342,0c-1.02,0-1.537-.833-1.537-2.514s.517-2.658,1.537-2.658,1.537.848,1.537,2.529-.488,2.6-1.537,2.6Z" transform="translate(60.48 53.86)" fill="#6b6b6b"/>
      <path id="Path_79" data-name="Path 79" d="M154.643,131.611a2.643,2.643,0,0,0-2.3,1.135,4.31,4.31,0,0,0-.733,2.557,4.784,4.784,0,0,0,.69,2.687,2.615,2.615,0,0,0,2.356,1.221,2.758,2.758,0,0,0,2.371-1.164,4.31,4.31,0,0,0,.747-2.629,4.468,4.468,0,0,0-.733-2.658A2.787,2.787,0,0,0,154.643,131.611Zm0,6.393c-1.02,0-1.537-.848-1.537-2.514s.517-2.672,1.552-2.672,1.537.848,1.537,2.529S155.72,138,154.686,138Z" transform="translate(63.31 56.161)" fill="#6b6b6b"/>
      <path id="Path_80" data-name="Path 80" d="M83.82,167.1v1.71a10.057,10.057,0,0,0,3.534-2.141v11.278h1.767V163.47H87.986A8.333,8.333,0,0,1,83.82,167.1Z" transform="translate(33.708 70.075)" fill="#6b6b6b"/>
      <rect id="Rectangle_71" data-name="Rectangle 71" width="2.011" height="2.011" transform="translate(130.357 245.987)" fill="#6b6b6b"/>
      <path id="Path_81" data-name="Path 81" d="M104.491,164.241a4.411,4.411,0,0,0-2.6-.79,4.2,4.2,0,0,0-3.319,1.437,5,5,0,0,0-1.221,3.448,4.928,4.928,0,0,0,1.135,3.29,3.908,3.908,0,0,0,3.132,1.437,3.994,3.994,0,0,0,1.968-.517,3.865,3.865,0,0,0,1.437-1.437q0,.237,0,.345a7.025,7.025,0,0,1-.919,3.836,2.73,2.73,0,0,1-2.442,1.437c-1.307,0-2.112-.761-2.385-2.27l-1.7.158a4.1,4.1,0,0,0,1.279,2.629,4.037,4.037,0,0,0,2.773.948,4.612,4.612,0,0,0,2.773-.862c1.58-1.149,2.371-3.434,2.371-6.882a10.675,10.675,0,0,0-.589-4.051,4.9,4.9,0,0,0-1.7-2.155Zm-.316,6.264a2.514,2.514,0,0,1-2.112.963,2.672,2.672,0,0,1-2.112-.905,3.2,3.2,0,0,1-.776-2.184,3.836,3.836,0,0,1,.761-2.371,2.6,2.6,0,0,1,2.169-1.092,2.457,2.457,0,0,1,2.069,1.034,3.721,3.721,0,0,1,.69,2.284,3.592,3.592,0,0,1-.69,2.3Z" transform="translate(39.615 70.066)" fill="#6b6b6b"/>
      <path id="Path_82" data-name="Path 82" d="M116.3,168.611a2.658,2.658,0,0,0-2.313,1.135,4.31,4.31,0,0,0-.733,2.557,4.784,4.784,0,0,0,.69,2.687,2.629,2.629,0,0,0,2.356,1.221,2.773,2.773,0,0,0,2.385-1.164,4.439,4.439,0,0,0,.747-2.629,4.31,4.31,0,0,0-.747-2.658,2.773,2.773,0,0,0-2.385-1.149Zm0,6.393c-1.02,0-1.523-.848-1.523-2.514s.517-2.672,1.537-2.672,1.537.848,1.537,2.529S117.36,175,116.326,175Z" transform="translate(46.558 72.319)" fill="#6b6b6b"/>
      <path id="Path_83" data-name="Path 83" d="M116.793,163.34l-7.873,15.186h1.465l7.844-15.186Z" transform="translate(44.669 70.018)" fill="#6b6b6b"/>
      <path id="Path_84" data-name="Path 84" d="M112.188,169.777a4.31,4.31,0,0,0,.747-2.615,4.439,4.439,0,0,0-.733-2.658,2.787,2.787,0,0,0-2.4-1.164,2.672,2.672,0,0,0-2.3,1.149,4.31,4.31,0,0,0-.733,2.557,4.741,4.741,0,0,0,.69,2.687,2.629,2.629,0,0,0,2.356,1.221,2.73,2.73,0,0,0,2.371-1.178Zm-2.342,0c-1.02,0-1.523-.833-1.523-2.514s.5-2.658,1.523-2.658,1.552.848,1.552,2.529-.517,2.6-1.552,2.6Z" transform="translate(43.728 70.017)" fill="#6b6b6b"/>
      <path id="Path_85" data-name="Path 85" d="M397.87,166.82v1.71a10.056,10.056,0,0,0,3.534-2.141v11.264h1.767V163.2h-1.135A8.39,8.39,0,0,1,397.87,166.82Z" transform="translate(170.849 69.957)" fill="#6b6b6b"/>
      <rect id="Rectangle_72" data-name="Rectangle 72" width="2.011" height="2.011" transform="translate(581.549 245.599)" fill="#6b6b6b"/>
      <path id="Path_86" data-name="Path 86" d="M418.537,163.977a4.511,4.511,0,0,0-2.6-.776,4.2,4.2,0,0,0-3.319,1.437,4.986,4.986,0,0,0-1.207,3.434,4.927,4.927,0,0,0,1.121,3.3,3.907,3.907,0,0,0,3.132,1.437,4.109,4.109,0,0,0,3.434-1.9q0,.237,0,.345a7.083,7.083,0,0,1-.92,3.836,2.73,2.73,0,0,1-2.442,1.437c-1.307,0-2.112-.761-2.385-2.27l-1.7.158a4.1,4.1,0,0,0,1.279,2.629,4.023,4.023,0,0,0,2.773.934,4.6,4.6,0,0,0,2.773-.848c1.58-1.149,2.385-3.448,2.385-6.882a10.762,10.762,0,0,0-.6-4.066A5.072,5.072,0,0,0,418.537,163.977Zm-.316,6.278a2.514,2.514,0,0,1-2.112.963A2.643,2.643,0,0,1,414,170.3a3.132,3.132,0,0,1-.776-2.169,3.807,3.807,0,0,1,.761-2.371,2.6,2.6,0,0,1,2.169-1.092,2.457,2.457,0,0,1,2.069,1.034,3.707,3.707,0,0,1,.69,2.27,3.635,3.635,0,0,1-.69,2.284Z" transform="translate(176.761 69.956)" fill="#6b6b6b"/>
      <path id="Path_87" data-name="Path 87" d="M426.238,169.507a4.31,4.31,0,0,0,.747-2.629,4.425,4.425,0,0,0-.733-2.644,2.787,2.787,0,0,0-2.4-1.164,2.672,2.672,0,0,0-2.3,1.149,4.311,4.311,0,0,0-.733,2.557,4.7,4.7,0,0,0,.69,2.672,2.644,2.644,0,0,0,2.356,1.236A2.73,2.73,0,0,0,426.238,169.507Zm-2.342,0c-1.02,0-1.523-.833-1.523-2.514s.5-2.658,1.523-2.658,1.552.833,1.552,2.529-.517,2.6-1.494,2.6Z" transform="translate(180.87 69.9)" fill="#6b6b6b"/>
      <path id="Path_88" data-name="Path 88" d="M430.843,163.07l-7.873,15.171h1.465l7.844-15.171Z" transform="translate(181.81 69.901)" fill="#6b6b6b"/>
      <path id="Path_89" data-name="Path 89" d="M430.347,168.331a2.672,2.672,0,0,0-2.313,1.149,4.311,4.311,0,0,0-.733,2.557,4.812,4.812,0,0,0,.69,2.687,2.629,2.629,0,0,0,2.356,1.221,2.773,2.773,0,0,0,2.385-1.164,4.439,4.439,0,0,0,.747-2.629,4.309,4.309,0,0,0-.747-2.658,2.744,2.744,0,0,0-2.385-1.164Zm0,6.393c-1.02,0-1.523-.833-1.523-2.514s.517-2.658,1.537-2.658,1.537.848,1.537,2.529-.489,2.644-1.523,2.644Z" transform="translate(183.7 72.196)" fill="#6b6b6b"/>
      <path id="Path_90" data-name="Path 90" d="M29.8,175.471a3.98,3.98,0,0,0-2.6.848c-1.437,1.135-2.1,3.3-2.1,6.508q0,7.341,4.7,7.356a3.951,3.951,0,0,0,2.615-.862c1.437-1.135,2.083-3.29,2.083-6.494a10.373,10.373,0,0,0-1.221-5.546,3.879,3.879,0,0,0-3.477-1.81Zm0,13.246c-1.221,0-2.054-.747-2.5-2.227a14.093,14.093,0,0,1-.374-3.664,9.123,9.123,0,0,1,.905-4.856,2.256,2.256,0,0,1,1.954-1.034c1.221,0,2.069.747,2.514,2.227a13.936,13.936,0,0,1,.374,3.664Q32.671,188.718,29.8,188.718Z" transform="translate(8.066 75.314)" fill="#6b6b6b"/>
      <rect id="Rectangle_73" data-name="Rectangle 73" width="2.011" height="2.011" transform="translate(47.346 263.227)" fill="#6b6b6b"/>
      <path id="Path_91" data-name="Path 91" d="M40.52,179.1v1.71a10.157,10.157,0,0,0,3.563-2.155v11.278H45.85V175.47H44.715A8.333,8.333,0,0,1,40.52,179.1Z" transform="translate(14.799 75.315)" fill="#6b6b6b"/>
      <path id="Path_92" data-name="Path 92" d="M59.009,175.34,51.15,190.526H52.6l7.844-15.186Z" transform="translate(19.441 75.259)" fill="#6b6b6b"/>
      <path id="Path_93" data-name="Path 93" d="M58.513,180.611a2.672,2.672,0,0,0-2.313,1.135,4.31,4.31,0,0,0-.718,2.557,4.784,4.784,0,0,0,.69,2.687,2.6,2.6,0,0,0,2.356,1.221,2.758,2.758,0,0,0,2.371-1.164,4.31,4.31,0,0,0,.747-2.629,4.468,4.468,0,0,0-.733-2.658A2.873,2.873,0,0,0,58.513,180.611Zm0,6.393c-1.02,0-1.537-.848-1.537-2.514s.517-2.672,1.537-2.672,1.552.848,1.552,2.529S59.59,187,58.556,187Z" transform="translate(21.331 77.559)" fill="#6b6b6b"/>
      <path id="Path_94" data-name="Path 94" d="M54.4,181.777a4.31,4.31,0,0,0,.747-2.615,4.439,4.439,0,0,0-.733-2.658,2.773,2.773,0,0,0-2.4-1.164,2.672,2.672,0,0,0-2.3,1.149A4.31,4.31,0,0,0,49,179.048a4.741,4.741,0,0,0,.675,2.687,2.629,2.629,0,0,0,2.371,1.221A2.73,2.73,0,0,0,54.4,181.777Zm-2.327,0c-1.034,0-1.537-.833-1.537-2.514s.5-2.658,1.537-2.658,1.537.848,1.537,2.529-.517,2.6-1.537,2.6Z" transform="translate(18.501 75.258)" fill="#6b6b6b"/>
      <path id="Path_95" data-name="Path 95" d="M457.578,175.471a3.951,3.951,0,0,0-2.6.848c-1.437,1.135-2.1,3.3-2.1,6.508q0,7.341,4.7,7.356a3.951,3.951,0,0,0,2.615-.862c1.437-1.135,2.069-3.29,2.069-6.494a10.387,10.387,0,0,0-1.207-5.546A3.893,3.893,0,0,0,457.578,175.471Zm0,13.246c-1.221,0-2.054-.747-2.5-2.227a13.389,13.389,0,0,1-.388-3.664,9.094,9.094,0,0,1,.919-4.856,2.241,2.241,0,0,1,1.94-1.034c1.236,0,2.069.747,2.514,2.227a13.245,13.245,0,0,1,.388,3.664Q460.451,188.718,457.578,188.718Z" transform="translate(194.872 75.314)" fill="#6b6b6b"/>
      <rect id="Rectangle_74" data-name="Rectangle 74" width="2.011" height="2.011" transform="translate(661.932 263.227)" fill="#6b6b6b"/>
      <path id="Path_96" data-name="Path 96" d="M468.3,179.1v1.71a10.3,10.3,0,0,0,3.534-2.141v11.278h1.781V175.47h-1.135A8.39,8.39,0,0,1,468.3,179.1Z" transform="translate(201.605 75.315)" fill="#6b6b6b"/>
      <path id="Path_97" data-name="Path 97" d="M488.652,181.76a2.773,2.773,0,0,0-2.385-1.149,2.658,2.658,0,0,0-2.313,1.135,4.31,4.31,0,0,0-.733,2.557,4.784,4.784,0,0,0,.69,2.687,2.629,2.629,0,0,0,2.356,1.221,2.773,2.773,0,0,0,2.385-1.164,4.439,4.439,0,0,0,.747-2.629A4.31,4.31,0,0,0,488.652,181.76ZM486.3,187c-1.02,0-1.523-.848-1.523-2.514s.517-2.672,1.537-2.672,1.537.848,1.537,2.529S487.373,187,486.339,187Z" transform="translate(208.119 77.559)" fill="#6b6b6b"/>
      <path id="Path_98" data-name="Path 98" d="M482.188,181.777a4.311,4.311,0,0,0,.747-2.615,4.439,4.439,0,0,0-.733-2.658,2.787,2.787,0,0,0-2.4-1.164,2.672,2.672,0,0,0-2.3,1.149,4.31,4.31,0,0,0-.733,2.557,4.741,4.741,0,0,0,.69,2.687,2.629,2.629,0,0,0,2.356,1.221,2.73,2.73,0,0,0,2.371-1.178Zm-2.342,0c-1.02,0-1.523-.833-1.523-2.514s.5-2.658,1.523-2.658,1.552.848,1.552,2.529-.517,2.6-1.552,2.6Z" transform="translate(205.303 75.258)" fill="#6b6b6b"/>
      <path id="Path_99" data-name="Path 99" d="M486.793,175.34l-7.873,15.186h1.465l7.844-15.186Z" transform="translate(206.243 75.259)" fill="#6b6b6b"/>
    </g>
  </g>
</svg>
